<svg xmlns="http://www.w3.org/2000/svg" aria-hidden="true" style="width:0;height:0;position:absolute;overflow:hidden"><defs><symbol id="icon-cross" viewBox="0 0 32 32"><path d="M18.148 16 30.78 3.368a1.521 1.521 0 0 0-.08-2.069 1.525 1.525 0 0 0-2.068-.08L16 13.851 3.368 1.203a1.53 1.53 0 0 0-2.164 2.164l12.648 12.632L1.204 28.631a1.513 1.513 0 0 0-.428 1.714c.077.196.193.373.341.522s.326.265.522.341a1.522 1.522 0 0 0 1.714-.428l12.648-12.632L28.633 30.78a1.52 1.52 0 0 0 2.068-.08 1.523 1.523 0 0 0 .08-2.069L18.149 15.999z"/></symbol></defs></svg>