<svg aria-hidden="true" style="position: absolute; width: 0; height: 0; overflow: hidden;" version="1.1" xmlns="http://www.w3.org/2000/svg" xmlns:xlink="http://www.w3.org/1999/xlink">
<defs>
<symbol id="icon-mob-close" viewBox="0 0 32 32">
<path d="M28.614 1.13l-12.614 12.614-12.614-12.614c-0.283-0.26-0.662-0.419-1.078-0.419-0.882 0-1.597 0.715-1.597 1.597 0 0.416 0.159 0.795 0.42 1.079l-0.001-0.001 12.608 12.614-12.611 12.611c-0.309 0.292-0.502 0.704-0.502 1.161 0 0.881 0.714 1.595 1.595 1.595 0.233 0 0.455-0.050 0.654-0.14l-0.010 0.004c0.202-0.089 0.375-0.211 0.518-0.361l0.001-0.001 12.618-12.611 12.614 12.614c0.283 0.26 0.662 0.419 1.078 0.419 0.882 0 1.597-0.715 1.597-1.597 0-0.416-0.159-0.795-0.42-1.079l0.001 0.001-12.614-12.614 12.614-12.618c0.289-0.289 0.468-0.688 0.468-1.13 0-0.882-0.715-1.596-1.596-1.596-0.44 0-0.839 0.178-1.128 0.467l0-0v0.003z"></path>
</symbol>
</defs>
</svg>
