<svg aria-hidden="true" style="position: absolute; width: 0; height: 0; overflow: hidden;" version="1.1" xmlns="http://www.w3.org/2000/svg" xmlns:xlink="http://www.w3.org/1999/xlink">
<defs>
<symbol id="icon-facebook" viewBox="0 0 32 32">
<path fill="#f8d24e" style="fill: var(--color1, #f8d24e)" d="M16 32c8.837 0 16-7.163 16-16s-7.163-16-16-16-16 7.163-16 16 7.163 16 16 16z"></path>
<path  d="M20.446 15.981h-2.611v9.619h-3.955v-9.619h-1.88v-3.379h1.88v-2.187c0-1.564 0.739-4.014 3.991-4.014l2.929 0.012v3.281h-2.125c-0.348 0-0.839 0.176-0.839 0.922v1.989h2.955l-0.345 3.377z"></path>
</symbol>
<symbol id="icon-telegram" viewBox="0 0 32 32">
<path fill="#f8d24e" style="fill: var(--color1, #f8d24e)" d="M32 16c0 8.837-7.163 16-16 16s-16-7.163-16-16c0-8.837 7.163-16 16-16s16 7.163 16 16z"></path>
<path  d="M12.869 18.376l-0.318 4.169c0.455 0 0.651-0.183 0.888-0.401l2.131-1.901 4.414 3.018c0.809 0.421 1.38 0.199 1.598-0.696l2.899-12.673c0.257-1.117-0.433-1.554-1.222-1.28l-17.032 6.086c-1.162 0.422-1.144 1.026-0.198 1.301l4.355 1.264 10.115-5.907c0.475-0.295 0.908-0.132 0.552 0.163l-8.182 6.856z"></path>
</symbol>
<symbol id="icon-github" viewBox="0 0 32 32">
<path fill="#f8d24e" style="fill: var(--color1, #f8d24e)" d="M32 16c0 8.837-7.163 16-16 16s-16-7.163-16-16c0-8.837 7.163-16 16-16s16 7.163 16 16z"></path>
<path d="M16 6.588c-5.17 0-9.412 4.242-9.412 9.412 0 4.411 3.096 8.419 7.206 9.412v-3.113c-0.408 0.088-0.781 0.091-1.196-0.031-0.556-0.164-1.008-0.535-1.344-1.099-0.214-0.36-0.593-0.753-0.988-0.724l-0.097-1.098c0.856-0.073 1.594 0.521 2.033 1.258 0.196 0.328 0.421 0.52 0.709 0.605 0.278 0.083 0.577 0.043 0.925-0.080 0.088-0.697 0.408-0.958 0.649-1.327-2.452-0.365-3.429-1.666-3.816-2.692-0.514-1.364-0.238-3.066 0.67-4.143 0.018-0.021 0.050-0.075 0.038-0.113-0.417-1.259 0.090-2.3 0.109-2.41 0.481 0.141 0.559-0.143 2.089 0.786l0.264 0.159c0.111 0.066 0.075 0.028 0.186 0.019 0.59-0.166 1.269-0.266 1.97-0.276l0.006-0c0.668 0.008 1.336 0.104 2.002 0.284l0.086 0.009c-0.008-0.002 0.024-0.006 0.075-0.037 1.911-1.158 1.842-0.779 2.355-0.946 0.019 0.111 0.519 1.169 0.106 2.411-0.056 0.171 1.656 1.739 0.708 4.256-0.388 1.026-1.365 2.328-3.816 2.693 0.314 0.48 0.692 0.734 0.69 1.722v3.886c4.109-0.993 7.206-5 7.206-9.412 0-5.17-4.242-9.412-9.412-9.412z"></path>
</symbol>
<symbol id="icon-anchor-top" viewBox="0 0 32 32">
<path fill="#e56a77" style="fill: var(--color1, #e56a77)" d="M14.452 13.916c-0.363 0-0.71-0.206-0.873-0.557l-4.7-10.112-4.699 10.112c-0.223 0.483-0.798 0.691-1.279 0.468-0.483-0.225-0.691-0.797-0.468-1.279l5.573-11.99c0.158-0.34 0.498-0.557 0.873-0.557s0.716 0.217 0.873 0.557l5.572 11.99c0.224 0.482 0.015 1.055-0.467 1.279-0.131 0.060-0.269 0.089-0.405 0.089z"></path>
<path fill="#e56a77" style="fill: var(--color1, #e56a77)" d="M28.694 32h-11.698c-5.405 0-9.481-3.634-9.481-8.453v-21.712c0-0.531 0.431-0.963 0.963-0.963s0.963 0.431 0.963 0.963v21.712c0 4.24 3.893 6.527 7.556 6.527h11.698c0.532 0 0.963 0.431 0.963 0.963s-0.431 0.963-0.963 0.963z"></path>
</symbol>
</defs>
</svg>